<svg width="25" height="25" viewBox="0 0 25 25" fill="none" xmlns="http://www.w3.org/2000/svg">
<g clip-path="url(#clip0_629_39805)">
<path fill-rule="evenodd" clip-rule="evenodd" d="M11.5 4.32129C9.29 4.32129 7.5 6.11129 7.5 8.32129C7.5 10.5313 9.29 12.3213 11.5 12.3213C13.71 12.3213 15.5 10.5313 15.5 8.32129C15.5 6.11129 13.71 4.32129 11.5 4.32129ZM13.5 8.32129C13.5 7.22129 12.6 6.32129 11.5 6.32129C10.4 6.32129 9.5 7.22129 9.5 8.32129C9.5 9.42129 10.4 10.3213 11.5 10.3213C12.6 10.3213 13.5 9.42129 13.5 8.32129ZM17.5 17.3213C17.3 16.6113 14.2 15.3213 11.5 15.3213C8.8 15.3213 5.7 16.6113 5.5 17.3313V18.3213H17.5V17.3213ZM3.5 17.3213C3.5 14.6613 8.83 13.3213 11.5 13.3213C14.17 13.3213 19.5 14.6613 19.5 17.3213V20.3213H3.5V17.3213Z" fill="#373B5C"/>
</g>
<defs>
<clipPath id="clip0_629_39805">
<rect width="24.0352" height="24.0352" fill="white"/>
</clipPath>
</defs>
</svg>
